<svg xmlns="http://www.w3.org/2000/svg" version="1.1" xmlns:xlink="http://www.w3.org/1999/xlink" xmlns:svgjs="http://svgjs.dev/svgjs" width="1000" height="257" viewBox="0 0 1000 257"><g transform="matrix(1,0,0,1,-0.6060606060606233,0.14246007642674385)"><svg viewBox="0 0 396 102" data-background-color="#ffffff" preserveAspectRatio="xMidYMid meet" height="257" width="1000" xmlns="http://www.w3.org/2000/svg" xmlns:xlink="http://www.w3.org/1999/xlink"><g id="tight-bounds" transform="matrix(1,0,0,1,0.2400000000000091,-0.05654057507987886)"><svg viewBox="0 0 395.52 102.11308115015974" height="102.11308115015974" width="395.52"><g><svg viewBox="0 0 395.52 102.11308115015974" height="102.11308115015974" width="395.52"><g><svg viewBox="0 0 395.52 102.11308115015974" height="102.11308115015974" width="395.52"><g id="textblocktransform"><svg viewBox="0 0 395.52 102.11308115015974" height="102.11308115015974" width="395.52" id="textblock"><g><svg viewBox="0 0 395.52 102.11308115015974" height="102.11308115015974" width="395.52"><rect width="395.52" height="102.11308115015974" x="0" y="0" opacity="1" fill="#ea9937" data-fill-palette-color="tertiary"></rect><g transform="matrix(1,0,0,1,23.607599999999998,23.607599999999998)"><svg width="348.3048" viewBox="3.5 -36 234.74000549316406 37" height="54.89788115015975" data-palette-color="#ffffff"><path d="M38.5-35L26-17.75 39.25 0 31 0 19.5-15.5 10.75-15.5 10.75 0 3.5 0 3.5-35 10.75-35 10.75-19.25 19-19.25 30.5-35 38.5-35ZM59.75-32.5L59.75-32.5Q57.2-32.5 54.97-31.6 52.75-30.7 51.1-28.85 49.45-27 48.47-24.18 47.5-21.35 47.5-17.5L47.5-17.5Q47.5-13.65 48.47-10.83 49.45-8 51.1-6.15 52.75-4.3 54.97-3.4 57.2-2.5 59.75-2.5L59.75-2.5Q62.3-2.5 64.52-3.4 66.75-4.3 68.4-6.15 70.05-8 71.02-10.83 72-13.65 72-17.5L72-17.5Q72-21.35 71.02-24.18 70.05-27 68.4-28.85 66.75-30.7 64.52-31.6 62.3-32.5 59.75-32.5ZM59.75-36L59.75-36Q64.25-36 67.92-34.8 71.6-33.6 74.22-31.25 76.85-28.9 78.3-25.45 79.75-22 79.75-17.5L79.75-17.5Q79.75-13 78.3-9.55 76.85-6.1 74.22-3.75 71.6-1.4 67.92-0.2 64.25 1 59.75 1L59.75 1Q55.25 1 51.55-0.2 47.85-1.4 45.22-3.75 42.6-6.1 41.17-9.55 39.75-13 39.75-17.5L39.75-17.5Q39.75-22 41.17-25.45 42.6-28.9 45.22-31.25 47.85-33.6 51.55-34.8 55.25-36 59.75-36ZM85.75-35L103.75-35Q107.5-35 110.47-34.18 113.45-33.35 115.5-31.78 117.55-30.2 118.65-27.93 119.75-25.65 119.75-22.75L119.75-22.75Q119.75-18.75 117.75-16 115.75-13.25 112-11.8L112-11.8 120.25 0 112 0 104.65-10.5 103.75-10.5 93-10.5 93 0 85.75 0 85.75-35ZM103.75-31.25L93-31.25 93-14.25 103.75-14.25Q107.7-14.25 109.84-16.32 112-18.4 112-22.75L112-22.75Q112-27.1 109.84-29.18 107.7-31.25 103.75-31.25L103.75-31.25ZM156.24-31.25L132.99-31.25 132.99-19.75 151.24-19.75 151.24-16 132.99-16 132.99-3.75 156.24-3.75 156.24 0 125.74 0 125.74-35 156.24-35 156.24-31.25ZM177.99-30.75L170.49-12.25 185.99-12.25 178.49-30.75 177.99-30.75ZM172.49-35L183.99-35 198.24 0 191.04 0 187.74-8.5 168.74-8.5 165.44 0 158.24 0 172.49-35ZM230.99-35L238.24-35 238.24 0 228.74 0 209.99-28.5 209.49-28.5 209.49 0 202.24 0 202.24-35 211.74-35 230.49-6.5 230.99-6.5 230.99-35Z" opacity="1" transform="matrix(1,0,0,1,0,0)" fill="#ffffff" class="undefined-text-0" data-fill-palette-color="quaternary" id="text-0"></path></svg></g></svg></g></svg></g></svg></g><g></g></svg></g><defs></defs></svg><rect width="395.52" height="102.11308115015974" fill="none" stroke="none" visibility="hidden"></rect></g></svg></g></svg>